<svg width="878" height="878" xmlns="http://www.w3.org/2000/svg" xmlns:xlink="http://www.w3.org/1999/xlink" xml:space="preserve" overflow="hidden"><defs><clipPath id="clip0"><rect x="2035" y="525" width="878" height="878"/></clipPath><clipPath id="clip1"><rect x="2282" y="854" width="384" height="384"/></clipPath><clipPath id="clip2"><rect x="2282" y="854" width="384" height="384"/></clipPath><clipPath id="clip3"><rect x="2282" y="854" width="384" height="384"/></clipPath></defs><g clip-path="url(#clip0)" transform="translate(-2035 -525)"><path d="M2474 707.917C2491.68 707.917 2506.01 693.585 2506.01 675.906 2506.01 658.227 2491.68 643.896 2474 643.896L2473.09 643.896C2455.68 644.207 2441.8 658.503 2441.99 675.906 2442.02 693.572 2456.33 707.886 2474 707.917ZM2473.4 662.187 2474 662.187C2481.58 662.187 2487.72 668.33 2487.72 675.907 2487.72 683.483 2481.58 689.625 2474 689.625 2466.42 689.625 2460.28 683.483 2460.28 675.905 2460.28 675.863 2460.28 675.82 2460.28 675.778 2460.16 668.409 2466.03 662.333 2473.4 662.187Z"/><path d="M2748.38 698.579C2748.38 678.375 2732 661.995 2711.79 661.995L2574.6 661.995 2574.6 643.704C2574.57 618.463 2554.12 598.01 2528.88 597.974L2419.12 597.974C2393.88 598.005 2373.43 618.46 2373.4 643.704L2373.4 661.995 2236.21 661.995C2216.01 662.021 2199.65 678.385 2199.62 698.579L2199.62 1293.25C2199.62 1313.45 2216 1329.83 2236.21 1329.83L2711.79 1329.83C2732 1329.83 2748.38 1313.45 2748.38 1293.25ZM2355.1 680.287 2391.69 680.287 2391.69 643.704C2391.69 628.55 2403.97 616.266 2419.12 616.266L2528.88 616.266C2544.03 616.266 2556.31 628.55 2556.31 643.704L2556.31 680.287 2592.9 680.287 2592.9 753.646 2355.1 753.646ZM2711.79 1311.54 2236.21 1311.54C2226.11 1311.54 2217.92 1303.35 2217.92 1293.25L2217.92 698.579C2217.92 688.476 2226.11 680.287 2236.21 680.287L2336.81 680.287 2336.81 771.937 2611.19 771.937 2611.19 680.287 2711.79 680.287C2721.89 680.287 2730.08 688.476 2730.08 698.579L2730.08 1293.25C2730.08 1303.35 2721.89 1311.54 2711.79 1311.54Z"/><g clip-path="url(#clip1)"><g clip-path="url(#clip2)"><g clip-path="url(#clip3)"><path d="M2473.5 1174.17C2403.28 1174.17 2345.83 1116.72 2345.83 1046.5 2345.83 976.283 2403.28 918.833 2473.5 918.833 2543.72 918.833 2601.17 976.283 2601.17 1046.5 2601.17 1116.72 2543.72 1174.17 2473.5 1174.17ZM2473.5 894.896C2389.72 894.896 2321.9 962.719 2321.9 1046.5 2321.9 1130.28 2389.72 1198.1 2473.5 1198.1 2557.28 1198.1 2625.1 1130.28 2625.1 1046.5 2625.1 962.719 2557.28 894.896 2473.5 894.896Z"/><path d="M2481.48 966.708 2465.52 966.708 2465.52 1046.5C2465.52 1048.89 2466.32 1050.89 2467.91 1052.09L2524.17 1108.34 2535.34 1097.17 2481.48 1043.31 2481.48 966.708Z"/><path d="M2481.48 942.771C2481.48 947.177 2477.91 950.75 2473.5 950.75 2469.09 950.75 2465.52 947.177 2465.52 942.771 2465.52 938.364 2469.09 934.792 2473.5 934.792 2477.91 934.792 2481.48 938.364 2481.48 942.771Z"/><path d="M2481.48 1150.23C2481.48 1154.64 2477.91 1158.21 2473.5 1158.21 2469.09 1158.21 2465.52 1154.64 2465.52 1150.23 2465.52 1145.82 2469.09 1142.25 2473.5 1142.25 2477.91 1142.25 2481.48 1145.82 2481.48 1150.23Z"/><path d="M2377.75 1046.5C2377.75 1050.91 2374.18 1054.48 2369.77 1054.48 2365.36 1054.48 2361.79 1050.91 2361.79 1046.5 2361.79 1042.09 2365.36 1038.52 2369.77 1038.52 2374.18 1038.52 2377.75 1042.09 2377.75 1046.5Z"/><path d="M2585.21 1046.5C2585.21 1050.91 2581.64 1054.48 2577.23 1054.48 2572.82 1054.48 2569.25 1050.91 2569.25 1046.5 2569.25 1042.09 2572.82 1038.52 2577.23 1038.52 2581.64 1038.52 2585.21 1042.09 2585.21 1046.5Z"/></g></g></g></g></svg>